<svg width="396" height="129" viewBox="0 0 396 129" fill="none" xmlns="http://www.w3.org/2000/svg">
<path d="M80.3452 59.5868C82.8152 59.5868 85.2635 59.6085 87.6902 59.6518C90.1602 59.6518 92.5652 59.7168 94.9052 59.8468C97.2452 59.9335 99.4119 60.0852 101.405 60.3018L100.235 67.4518H83.4652C82.2085 67.4518 81.2769 67.7335 80.6702 68.2968C80.0635 68.8168 79.6735 69.7052 79.5002 70.9618L76.3802 93.5818C76.2069 94.7085 76.3585 95.5535 76.8352 96.1168C77.3119 96.6802 78.1569 96.9618 79.3702 96.9618H95.9452L95.7502 104.177C93.7569 104.437 91.6119 104.589 89.3152 104.632C87.0619 104.719 84.7652 104.762 82.4252 104.762C80.1285 104.805 77.8752 104.827 75.6652 104.827C72.1985 104.827 69.6635 103.852 68.0602 101.902C66.4569 99.9085 65.8719 97.3302 66.3052 94.1668L69.8802 68.4268C70.2702 65.6968 71.3535 63.5518 73.1302 61.9918C74.9069 60.3885 77.3119 59.5868 80.3452 59.5868ZM69.8152 77.8518H96.2702L95.4252 84.8068H68.7102L69.8152 77.8518ZM136.066 72.5218C135.763 74.4285 135.351 76.3568 134.831 78.3068C134.311 80.2568 133.769 82.1202 133.206 83.8968C132.643 85.6302 132.058 87.2335 131.451 88.7068C130.541 91.1768 129.588 93.3652 128.591 95.2718C127.638 97.1785 126.836 98.6085 126.186 99.5618C125.406 100.905 124.561 101.945 123.651 102.682C122.784 103.419 121.809 103.939 120.726 104.242C119.643 104.502 118.321 104.632 116.761 104.632H109.481C108.744 104.632 108.094 104.394 107.531 103.917C107.011 103.44 106.708 102.855 106.621 102.162L101.811 72.5218H112.211L114.551 98.3268H115.331C116.198 98.3268 116.848 98.1318 117.281 97.7418C117.758 97.3518 118.299 96.5502 118.906 95.3368C119.426 94.3402 119.989 93.1268 120.596 91.6968C121.246 90.2668 121.896 88.5335 122.546 86.4968C123.369 83.9835 124.019 81.5785 124.496 79.2818C124.973 76.9852 125.384 74.7318 125.731 72.5218H136.066ZM156.108 71.6768C157.234 71.6768 158.491 71.7418 159.878 71.8718C161.308 71.9585 162.738 72.0885 164.168 72.2618C165.641 72.4352 167.006 72.6302 168.263 72.8468C169.563 73.0635 170.624 73.2802 171.448 73.4968L164.883 78.6968C163.149 78.6102 161.568 78.5668 160.138 78.5668C158.708 78.5235 157.364 78.5018 156.108 78.5018C154.678 78.5018 153.464 78.6102 152.468 78.8268C151.471 79.0435 150.648 79.4768 149.998 80.1268C149.348 80.7335 148.806 81.6652 148.373 82.9218C147.939 84.1785 147.571 85.8685 147.268 87.9918C146.878 90.6785 146.661 92.7368 146.618 94.1668C146.618 95.5535 146.878 96.5068 147.398 97.0268C147.918 97.5468 148.741 97.7852 149.868 97.7418C151.038 97.6985 152.251 97.3085 153.508 96.5718C154.808 95.8352 156.086 94.8385 157.343 93.5818C158.599 92.2818 159.813 90.8302 160.983 89.2268L162.673 92.3468C161.806 94.9035 160.571 97.1568 158.968 99.1068C157.408 101.014 155.566 102.509 153.443 103.592C151.319 104.675 148.958 105.282 146.358 105.412C143.541 105.542 141.374 104.979 139.858 103.722C138.384 102.465 137.474 100.515 137.128 97.8718C136.781 95.2285 136.911 91.9135 137.518 87.9268C138.081 84.2435 138.861 81.3185 139.858 79.1518C140.898 76.9418 142.198 75.3168 143.758 74.2768C145.318 73.1935 147.116 72.5002 149.153 72.1968C151.233 71.8502 153.551 71.6768 156.108 71.6768ZM161.958 72.9118L171.448 73.4968L167.093 104.632H159.618L159.748 97.3518L158.578 96.5718L161.958 72.9118ZM200.228 71.6768C202.005 71.6768 203.543 72.0235 204.843 72.7168C206.143 73.3668 207.096 74.3635 207.703 75.7068C208.31 77.0502 208.483 78.7402 208.223 80.7768L204.843 104.632H195.158L198.148 83.7018C198.365 82.2285 198.278 81.2102 197.888 80.6468C197.541 80.0402 196.761 79.7585 195.548 79.8018C194.118 79.8452 192.601 80.3002 190.998 81.1668C189.438 82.0335 187.531 83.3768 185.278 85.1968L184.173 80.3218C186.73 77.5918 189.373 75.4685 192.103 73.9518C194.876 72.4352 197.585 71.6768 200.228 71.6768ZM185.538 72.5218V80.9718L186.318 81.8818L183.133 104.632H173.513L177.998 72.5218H185.538ZM244.977 58.9368C247.317 58.9368 249.766 59.0885 252.322 59.3918C254.879 59.6518 257.327 60.1068 259.667 60.7568L258.757 67.3218C257.371 67.2785 255.876 67.2568 254.272 67.2568C252.712 67.2135 251.109 67.1918 249.462 67.1918C247.816 67.1485 246.147 67.1268 244.457 67.1268C243.374 67.1268 242.399 67.1702 241.532 67.2568C240.709 67.3002 239.994 67.4518 239.387 67.7118C238.824 67.9718 238.369 68.4052 238.022 69.0118C237.676 69.5752 237.416 70.3552 237.242 71.3518C237.156 72.2185 237.177 72.9552 237.307 73.5618C237.481 74.1252 237.849 74.6235 238.412 75.0568C238.976 75.4468 239.821 75.8802 240.947 76.3568L249.072 79.7368C251.456 80.7335 253.254 81.8385 254.467 83.0518C255.681 84.2652 256.461 85.6952 256.807 87.3418C257.154 88.9452 257.176 90.8518 256.872 93.0618C256.482 96.3985 255.637 98.9768 254.337 100.797C253.037 102.574 251.174 103.809 248.747 104.502C246.321 105.152 243.136 105.477 239.192 105.477C237.589 105.477 235.379 105.347 232.562 105.087C229.789 104.87 226.799 104.415 223.592 103.722L224.567 96.7018C227.124 96.7452 229.334 96.8102 231.197 96.8968C233.061 96.9402 234.621 96.9835 235.877 97.0268C237.134 97.0268 238.131 97.0268 238.867 97.0268C240.731 97.0268 242.226 96.9185 243.352 96.7018C244.479 96.4418 245.324 96.0085 245.887 95.4018C246.494 94.7518 246.884 93.7985 247.057 92.5418C247.187 91.5885 247.166 90.8302 246.992 90.2668C246.862 89.7035 246.516 89.2485 245.952 88.9018C245.432 88.5118 244.696 88.1218 243.742 87.7318L235.162 84.0268C232.866 83.0302 231.111 81.9035 229.897 80.6468C228.684 79.3468 227.904 77.8952 227.557 76.2918C227.211 74.6452 227.167 72.8468 227.427 70.8968C227.731 68.4268 228.316 66.4118 229.182 64.8518C230.049 63.2485 231.197 62.0352 232.627 61.2118C234.101 60.3452 235.856 59.7602 237.892 59.4568C239.972 59.1102 242.334 58.9368 244.977 58.9368ZM279.886 71.6768C283.829 71.6768 286.863 72.1102 288.986 72.9768C291.153 73.8002 292.604 75.0568 293.341 76.7468C294.078 78.3935 294.251 80.4302 293.861 82.8568C293.558 84.8502 292.886 86.4318 291.846 87.6018C290.849 88.7285 289.463 89.5735 287.686 90.1368C285.909 90.7002 283.656 91.0902 280.926 91.3068L264.546 92.6718L265.261 87.3418L279.041 85.9768C280.211 85.8468 281.164 85.6735 281.901 85.4568C282.681 85.1968 283.288 84.8068 283.721 84.2868C284.154 83.7235 284.436 82.9435 284.566 81.9468C284.739 80.9068 284.674 80.1268 284.371 79.6068C284.068 79.0868 283.526 78.7618 282.746 78.6318C281.966 78.4585 280.926 78.3935 279.626 78.4368C278.283 78.4368 277.156 78.5668 276.246 78.8268C275.336 79.0868 274.578 79.5635 273.971 80.2568C273.364 80.9068 272.866 81.8602 272.476 83.1168C272.086 84.3302 271.718 85.9118 271.371 87.8618C270.938 90.6785 270.873 92.8018 271.176 94.2318C271.479 95.6618 272.151 96.6152 273.191 97.0918C274.231 97.5685 275.683 97.8068 277.546 97.8068C278.586 97.8068 279.843 97.7852 281.316 97.7418C282.789 97.6552 284.284 97.5685 285.801 97.4818C287.361 97.3518 288.769 97.2218 290.026 97.0918L290.676 103.072C289.376 103.635 287.903 104.09 286.256 104.437C284.609 104.784 282.941 105.022 281.251 105.152C279.561 105.325 277.979 105.412 276.506 105.412C272.216 105.412 268.879 104.762 266.496 103.462C264.156 102.162 262.596 100.234 261.816 97.6768C261.036 95.0768 260.863 91.8918 261.296 88.1218C261.686 84.7852 262.336 82.0552 263.246 79.9318C264.199 77.8085 265.413 76.1618 266.886 74.9918C268.403 73.7785 270.244 72.9335 272.411 72.4568C274.578 71.9368 277.069 71.6768 279.886 71.6768ZM322.425 71.6768C324.202 71.6768 325.74 72.0235 327.04 72.7168C328.34 73.3668 329.294 74.3635 329.9 75.7068C330.507 77.0502 330.68 78.7402 330.42 80.7768L327.04 104.632H317.355L320.345 83.7018C320.562 82.2285 320.475 81.2102 320.085 80.6468C319.739 80.0402 318.959 79.7585 317.745 79.8018C316.315 79.8452 314.799 80.3002 313.195 81.1668C311.635 82.0335 309.729 83.3768 307.475 85.1968L306.37 80.3218C308.927 77.5918 311.57 75.4685 314.3 73.9518C317.074 72.4352 319.782 71.6768 322.425 71.6768ZM307.735 72.5218V80.9718L308.515 81.8818L305.33 104.632H295.71L300.195 72.5218H307.735ZM351.587 63.6168L347.167 94.5568C346.993 95.7268 347.102 96.5285 347.492 96.9618C347.882 97.3952 348.705 97.6118 349.962 97.6118H354.317L354.772 104.177C353.948 104.437 352.952 104.654 351.782 104.827C350.655 105.044 349.55 105.195 348.467 105.282C347.383 105.369 346.495 105.412 345.802 105.412C342.812 105.412 340.537 104.61 338.977 103.007C337.46 101.36 336.918 99.1502 337.352 96.3768L342.097 63.6168H351.587ZM359.257 72.5218L358.347 78.8268H334.167L334.947 72.8468L341.187 72.5218H359.257Z" fill="#3B4AD1"/>
<path fill-rule="evenodd" clip-rule="evenodd" d="M80.5435 23.4092C79.1623 21.7169 75.3026 20.4286 72.1336 19.9866C66.5242 19.1899 61.6284 19.8831 53.4161 21.0312C45.2216 22.1768 35.788 25.2782 29.8988 27.5917C26.4832 28.9334 26.7802 28.824 22.9076 31.4338C20.8125 32.8458 20.9596 33.8432 20.8579 34.5789C20.927 34.6295 17.8922 32.6655 20.0973 34.7545C20.8074 35.4272 21.5963 35.951 23.0819 36.58C26.1447 37.8765 32.3556 38.2142 40.2538 37.7319C46.8694 37.328 55.7926 35.8897 62.2973 34.235L55.8282 31.7685C53.9169 30.6109 53.29 28.0574 54.4279 26.0651C55.5658 24.0727 58.0377 23.396 59.9489 24.5536L73.9631 30.7367C76.629 32.235 77.9631 34.2319 76.3496 37.7319L65.545 52.5269C64.4961 54.5703 62.0557 55.3636 60.0942 54.2987C58.1327 53.2338 57.3929 50.714 58.4419 48.6706L62.2973 42.235C55.5506 43.8946 47.4523 45.646 40.6422 46.0618C32.3586 46.5676 24.8496 46.0318 19.6997 44.2742C17.1798 43.4142 14.7091 42.0922 13.192 39.9363C12.3839 38.7879 11.8568 37.4093 11.7973 35.8661C11.7385 34.3454 12.1435 32.9406 12.7709 31.7251C13.9637 29.4143 16.1011 27.5013 18.4317 25.9306C20.8463 24.3033 23.8724 22.7764 27.3394 21.39C34.2753 18.6165 42.8874 16.4425 51.5837 15.2268C60.2621 14.0136 68.661 13.8054 75.2062 14.735C78.4649 15.1978 81.3618 15.955 83.6469 17.0861C85.8242 18.1637 88.1729 19.9539 88.9631 22.8875C89.8062 26.0171 88.4671 28.7957 86.8583 30.7367C85.2395 32.69 82.8772 34.4292 80.1257 35.9722C78.1609 37.074 80.34 33.7587 79.2973 31.735C78.2545 29.7113 74.3848 29.7455 76.3496 28.6436C78.6758 27.3391 80.6386 25.7723 81.3397 24.9264C83.4202 21.8572 81.3358 24.9193 81.2341 24.2553C81.1324 23.5913 80.9967 23.9644 80.5435 23.4092Z" fill="#FADC41"/>
</svg>
